<svg width="36" height="36" viewBox="0 0 36 36" fill="none" xmlns="http://www.w3.org/2000/svg">
<path fill-rule="evenodd" clip-rule="evenodd" d="M9.82224 29.2112C8.9142 29.2112 8.17666 29.9487 8.17666 30.8568C8.17666 31.7648 8.9142 32.5036 9.82224 32.5036C10.729 32.5036 11.4665 31.7648 11.4665 30.8568C11.4665 29.9487 10.729 29.2112 9.82224 29.2112Z" fill="#EC7823"/>
<path fill-rule="evenodd" clip-rule="evenodd" d="M23.859 29.2112C22.951 29.2112 22.2134 29.9487 22.2134 30.8568C22.2134 31.7648 22.951 32.5036 23.859 32.5036C24.7671 32.5036 25.5046 31.7648 25.5046 30.8568C25.5046 29.9487 24.7671 29.2112 23.859 29.2112Z" fill="#EC7823"/>
<path fill-rule="evenodd" clip-rule="evenodd" d="M17.5345 19.4368H22.9208V17.4993H17.5345V19.4368ZM7.93745 12.4488L7.54995 8.49635H2.51245V10.4338H5.79328L7.44662 26.838H26.5891L28.4879 12.4488H7.93745Z" fill="#EC7823"/>
<circle cx="31" cy="5" r="5" fill="#008C99"/>
</svg>
