<svg width="41" height="29" viewBox="0 0 41 29" fill="none" xmlns="http://www.w3.org/2000/svg">
<g clip-path="url(#clip0_50_2588)">
<path fill-rule="evenodd" clip-rule="evenodd" d="M31.1142 0L25.9727 0.0269104C25.0829 0.228193 23.7593 1.22547 23.5425 2.81779C23.5416 2.82077 23.5486 2.77336 23.5486 2.77336L16.7685 20.2891C16.7685 20.2891 19.8375 20.2946 21.5213 20.2768C22.2659 20.2287 23.2948 19.6749 23.6268 19.1536L24.4119 17.3326L27.7987 8.4023L33.5128 23.1062L4.31454 23.1122L10.9564 5.63545L10.9562 5.6346L13.0446 0.1783C12.7373 0.0893372 12.4169 0.0440798 12.0947 0.0440926C10.6622 0.0445191 9.40919 0.929974 9.04116 2.2018L0.337466 24.7145C0.122097 25.114 8.11785e-06 25.5651 0 26.0432C2.61575e-05 27.6728 1.4096 28.9938 3.14836 28.9938C3.2344 28.9936 3.32039 28.99 3.40612 28.9832L37.2823 28.9903V28.9894C37.3007 28.9933 37.3191 28.9966 37.3375 29L38.3725 28.9987C39.8886 28.7604 40.9993 27.5307 41 26.09C41 25.5318 40.8345 25.01 40.5472 24.565L31.1142 0ZM21.2743 0.0207254C21.2743 0.0207254 19.1263 0.0232866 18.0523 0.0255895C17.0891 0.189762 16.2622 0.764561 15.815 1.58078L15.4677 2.52113L8.61447 20.2914L10.6055 20.2676L11.3918 20.2693C12.9385 20.1562 14.0658 19.1678 14.5374 17.6918C16.9389 11.911 21.2743 0.0207254 21.2743 0.0207254Z" fill="#008C99"/>
</g>
<defs>
<clipPath id="clip0_50_2588">
<rect width="41" height="29" fill="white"/>
</clipPath>
</defs>
</svg>
