<svg width="18" height="18" viewBox="0 0 18 18" fill="none" xmlns="http://www.w3.org/2000/svg">
<g clip-path="url(#clip0_50_2102)">
<path d="M17.6415 4.63918C17.5397 4.25624 17.3391 3.90674 17.0599 3.62567C16.7806 3.3446 16.4324 3.14181 16.0501 3.03759C14.6428 2.65918 9.01782 2.65918 9.01782 2.65918C9.01782 2.65918 3.39282 2.65918 1.98555 3.03759C1.60327 3.14181 1.25507 3.3446 0.975788 3.62567C0.696509 3.90674 0.495951 4.25624 0.394186 4.63918C0.0178223 6.05259 0.0178223 9.00009 0.0178223 9.00009C0.0178223 9.00009 0.0178223 11.9476 0.394186 13.361C0.495951 13.7439 0.696509 14.0934 0.975788 14.3745C1.25507 14.6556 1.60327 14.8584 1.98555 14.9626C3.39282 15.341 9.01782 15.341 9.01782 15.341C9.01782 15.341 14.6428 15.341 16.0501 14.9626C16.4324 14.8584 16.7806 14.6556 17.0599 14.3745C17.3391 14.0934 17.5397 13.7439 17.6415 13.361C18.0178 11.9476 18.0178 9.00009 18.0178 9.00009C18.0178 9.00009 18.0178 6.05259 17.6415 4.63918Z" fill="#FF0302"/>
<path d="M7.177 11.6764V6.32349L11.8815 8.99996L7.177 11.6764Z" fill="#FEFEFE"/>
</g>
<defs>
<clipPath id="clip0_50_2102">
<rect width="18" height="18" fill="white"/>
</clipPath>
</defs>
</svg>
