<svg width="18" height="18" viewBox="0 0 18 18" fill="none" xmlns="http://www.w3.org/2000/svg">
<g clip-path="url(#clip0_50_2100)">
<path d="M0 8.64C0 4.56705 0 2.5306 1.2653 1.2653C2.5306 0 4.56705 0 8.64 0H9.36C13.4329 0 15.4694 0 16.7347 1.2653C18 2.5306 18 4.56705 18 8.64V9.36C18 13.4329 18 15.4694 16.7347 16.7347C15.4694 18 13.4329 18 9.36 18H8.64C4.56705 18 2.5306 18 1.2653 16.7347C0 15.4694 0 13.4329 0 9.36V8.64Z" fill="#0077FF"/>
<path d="M9.57756 12.9676C5.47506 12.9676 3.1351 10.1551 3.0376 5.4751H5.0926C5.1601 8.9101 6.67506 10.3651 7.87506 10.6651V5.4751H9.81014V8.4376C10.9951 8.3101 12.24 6.9601 12.66 5.4751H14.595C14.2725 7.3051 12.9225 8.6551 11.9625 9.2101C12.9225 9.6601 14.4601 10.8376 15.0451 12.9676H12.915C12.4575 11.5426 11.3176 10.4401 9.81014 10.2901V12.9676H9.57756Z" fill="white"/>
</g>
<defs>
<clipPath id="clip0_50_2100">
<rect width="18" height="18" fill="white"/>
</clipPath>
</defs>
</svg>
