<svg width="171" height="48" viewBox="0 0 171 48" fill="none" xmlns="http://www.w3.org/2000/svg">
<g clip-path="url(#clip0_50_1998)">
<path fill-rule="evenodd" clip-rule="evenodd" d="M50.8452 0L42.4433 0.0445414C40.9891 0.377698 38.8261 2.02836 38.4719 4.66393C38.4704 4.66887 38.4819 4.5904 38.4819 4.5904L27.4022 33.582C27.4022 33.582 32.4174 33.5911 35.169 33.5617C36.3857 33.482 38.0671 32.5654 38.6096 31.7025L39.8927 28.6885L45.4272 13.9073L54.7648 38.2448L7.05059 38.2546L17.9044 9.32764L17.904 9.32623L21.3168 0.295117C20.8145 0.147869 20.291 0.0729597 19.7645 0.0729809C17.4236 0.0736867 15.376 1.53927 14.7746 3.64435L0.551469 40.9068C0.199524 41.5679 1.32658e-05 42.3147 0 43.106C4.27452e-05 45.8033 2.3035 47.9898 5.14488 47.9898C5.28548 47.9894 5.426 47.9834 5.5661 47.9723L60.9247 47.9839V47.9825C60.9548 47.9888 60.9848 47.9944 61.015 48L62.7063 47.9979C65.1838 47.6034 66.9989 45.5681 67 43.1834C67 42.2596 66.7295 41.3959 66.26 40.6593L50.8452 0ZM34.7654 0.034304C34.7654 0.034304 31.2552 0.0385434 29.5001 0.042355C27.9261 0.314088 26.5748 1.26548 25.844 2.61647L25.2765 4.1729L14.0773 33.5858L17.3309 33.5464L18.6159 33.5492C21.1434 33.362 22.9856 31.7261 23.7562 29.283C27.6806 19.7148 34.7654 0.034304 34.7654 0.034304Z" fill="#008C99"/>
</g>
<g clip-path="url(#clip1_50_1998)">
<path fill-rule="evenodd" clip-rule="evenodd" d="M107.905 11C107.532 11.0078 107.214 11.014 106.893 11.0139C105.564 11.014 104.486 12.039 104.486 13.3033C104.486 13.594 104.544 13.882 104.519 14.2359L104.482 36L114.217 35.9853L114.537 11.0566L107.905 11ZM114.318 35.9843L122.784 35.9659H124.708C125.428 35.8571 125.442 35.7609 126.412 35.5159C127.658 35.2166 127.657 35.1758 128.419 34.89C129.319 34.4546 129.33 34.4681 129.887 34.0601C130.911 32.9171 130.921 32.9091 131.894 31.0801C132.365 29.5426 132.365 29.5154 132.254 28.2908L132.212 25.8825C131.586 24.4586 131.589 24.4487 130.787 23.3519C129.827 22.4475 129.831 22.4979 129.028 21.8821C128.186 21.3818 128.189 21.3946 127.034 20.9979C125.886 20.6997 125.884 20.7004 124.708 20.6715L114.328 20.6303L114.277 25.7239L118.147 25.7273C118.147 25.7273 118.678 25.7567 119.464 25.7668C120.201 26.0655 121.152 26.9923 121.153 28.2567C121.153 29.5211 120.399 30.8565 119.069 30.8563C118.959 30.8563 118.396 30.8711 118.396 30.8711L114.408 30.7908L114.318 35.9843ZM94.0547 11L83.8875 11.0408L78.4499 11.0434C78.4499 11.0434 78.2119 11.0521 78.167 11.0521C77.1555 11.0526 76.2688 11.6909 75.9998 12.612L75.966 12.7837L74 16.85L83.9085 16.9523L83.9546 35.9621L94.0013 35.9561L94.0547 11ZM101.817 11.0304L94.0547 11L94.043 16.7582L101.78 16.8472L101.817 11.0304ZM114.537 11.051L114.463 16.8342L127.675 16.7266C128.795 16.1486 128.993 15.9894 129.558 15.0703L131.506 11.0914L114.537 11.051ZM153.264 11.151L143.986 11.1632C143.986 11.1632 143.936 11.1776 143.656 11.1775C142.341 11.1774 141.273 12.1798 141.249 13.4248L141.248 13.4196L132.275 35.962L137.874 35.9559C137.874 35.9559 138.112 35.9585 138.23 35.9585C139.337 35.9581 140.218 35.4058 140.483 34.3836L140.553 34.1639L145.066 22.4149L153.317 22.357L153.264 11.151ZM170.772 11.2694L160.617 11.2864H159.294L159.17 11.3079C158.115 11.4539 157.287 12.2415 157.134 13.244L157.135 13.2527L153.544 22.3287L160.613 22.3673L160.671 15.5797L160.953 35.943L171 35.937L170.772 11.2694ZM160.444 22.5654L145.438 22.5981L146.182 35.9967L153.934 35.9523C154.143 35.9424 154.294 35.9566 154.445 35.9575C155.756 35.9569 156.826 34.9581 156.851 33.7111L156.904 33.7443L160.444 22.5654Z" fill="#008C99"/>
<path d="M94.0547 11L83.8875 11.0408L78.4499 11.0434C78.4499 11.0434 78.2119 11.0521 78.167 11.0521C77.1555 11.0526 76.2688 11.6909 75.9998 12.612L75.966 12.7837L74 16.85L83.9085 16.9523L83.9546 35.9621L94.0013 35.9561L94.0547 11ZM94.0547 11L101.817 11.0304L101.78 16.8472L94.043 16.7582L94.0547 11ZM107.905 11C107.532 11.0078 107.214 11.014 106.893 11.0139C105.564 11.014 104.486 12.039 104.486 13.3033C104.486 13.594 104.544 13.882 104.519 14.2359L104.482 36L114.217 35.9853L114.537 11.0566L107.905 11ZM114.318 35.9843L122.784 35.9659H124.708C125.428 35.8571 125.442 35.7609 126.412 35.5159C127.658 35.2166 127.657 35.1758 128.419 34.89C129.319 34.4546 129.33 34.4681 129.887 34.0601C130.911 32.9171 130.921 32.9091 131.894 31.0801C132.365 29.5426 132.365 29.5154 132.254 28.2908L132.212 25.8825C131.586 24.4586 131.589 24.4487 130.787 23.3519C129.827 22.4475 129.831 22.4979 129.028 21.8821C128.186 21.3818 128.189 21.3946 127.034 20.9979C125.886 20.6997 125.884 20.7004 124.708 20.6715L114.328 20.6303L114.277 25.7239L118.147 25.7273C118.147 25.7273 118.678 25.7567 119.464 25.7668C120.201 26.0655 121.152 26.9923 121.153 28.2567C121.153 29.5211 120.399 30.8565 119.069 30.8563C118.959 30.8563 118.396 30.8711 118.396 30.8711L114.408 30.7908L114.318 35.9843ZM114.537 11.051L114.463 16.8342L127.675 16.7266C128.795 16.1486 128.993 15.9894 129.558 15.0703L131.506 11.0914L114.537 11.051ZM153.264 11.151L143.986 11.1632C143.986 11.1632 143.936 11.1776 143.656 11.1775C142.341 11.1774 141.273 12.1798 141.249 13.4248L141.248 13.4196L132.275 35.962L137.874 35.9559C137.874 35.9559 138.112 35.9585 138.23 35.9585C139.337 35.9581 140.218 35.4058 140.483 34.3836L140.553 34.1639L145.066 22.4149L153.317 22.357L153.264 11.151ZM170.772 11.2694L160.617 11.2864H159.294L159.17 11.3079C158.115 11.4539 157.287 12.2415 157.134 13.244L157.135 13.2527L153.544 22.3287L160.613 22.3673L160.671 15.5797L160.953 35.943L171 35.937L170.772 11.2694ZM160.444 22.5654L145.438 22.5981L146.182 35.9967L153.934 35.9523C154.143 35.9424 154.294 35.9566 154.445 35.9575C155.756 35.9569 156.826 34.9581 156.851 33.7111L156.904 33.7443L160.444 22.5654Z" stroke="#008C99" stroke-width="2.5223" stroke-miterlimit="4.8" stroke-linecap="square"/>
</g>
<defs>
<clipPath id="clip0_50_1998">
<rect width="67" height="48" fill="white"/>
</clipPath>
<clipPath id="clip1_50_1998">
<rect width="97" height="25" fill="white" transform="translate(74 11)"/>
</clipPath>
</defs>
</svg>
