<svg width="20" height="20" viewBox="0 0 20 20" fill="none" xmlns="http://www.w3.org/2000/svg">
<circle cx="10" cy="10" r="10" fill="#EC7823"/>
<path d="M5.6665 8.02393V7.53516C5.6665 7.18392 5.74268 6.86442 5.89502 6.57666C6.04736 6.2889 6.2653 6.05827 6.54883 5.88477C6.83236 5.71126 7.16878 5.62451 7.55811 5.62451C7.95589 5.62451 8.29443 5.71126 8.57373 5.88477C8.85726 6.05827 9.0752 6.2889 9.22754 6.57666C9.37988 6.86442 9.45605 7.18392 9.45605 7.53516V8.02393C9.45605 8.3667 9.37988 8.68197 9.22754 8.96973C9.07943 9.25749 8.86361 9.48812 8.58008 9.66162C8.30078 9.83512 7.96436 9.92188 7.5708 9.92188C7.17725 9.92188 6.83659 9.83512 6.54883 9.66162C6.2653 9.48812 6.04736 9.25749 5.89502 8.96973C5.74268 8.68197 5.6665 8.3667 5.6665 8.02393ZM6.54883 7.53516V8.02393C6.54883 8.21859 6.5848 8.40267 6.65674 8.57617C6.73291 8.74967 6.84717 8.89144 6.99951 9.00146C7.15186 9.10726 7.34229 9.16016 7.5708 9.16016C7.79932 9.16016 7.98763 9.10726 8.13574 9.00146C8.28385 8.89144 8.39388 8.74967 8.46582 8.57617C8.53776 8.40267 8.57373 8.21859 8.57373 8.02393V7.53516C8.57373 7.33626 8.53564 7.15007 8.45947 6.97656C8.38753 6.79883 8.27539 6.65706 8.12305 6.55127C7.97493 6.44124 7.78662 6.38623 7.55811 6.38623C7.33382 6.38623 7.14551 6.44124 6.99316 6.55127C6.84505 6.65706 6.73291 6.79883 6.65674 6.97656C6.5848 7.15007 6.54883 7.33626 6.54883 7.53516ZM10.167 13.229V12.7339C10.167 12.3869 10.2432 12.0695 10.3955 11.7817C10.5479 11.494 10.7658 11.2633 11.0493 11.0898C11.3328 10.9163 11.6693 10.8296 12.0586 10.8296C12.4564 10.8296 12.7949 10.9163 13.0742 11.0898C13.3577 11.2633 13.5757 11.494 13.728 11.7817C13.8804 12.0695 13.9565 12.3869 13.9565 12.7339V13.229C13.9565 13.576 13.8804 13.8934 13.728 14.1812C13.5799 14.4689 13.3641 14.6995 13.0806 14.873C12.8013 15.0465 12.4648 15.1333 12.0713 15.1333C11.6777 15.1333 11.3392 15.0465 11.0557 14.873C10.7721 14.6995 10.5521 14.4689 10.3955 14.1812C10.2432 13.8934 10.167 13.576 10.167 13.229ZM11.0493 12.7339V13.229C11.0493 13.4237 11.0853 13.6099 11.1572 13.7876C11.2334 13.9611 11.3477 14.1029 11.5 14.2129C11.6523 14.3187 11.8428 14.3716 12.0713 14.3716C12.2998 14.3716 12.4881 14.3187 12.6362 14.2129C12.7886 14.1029 12.9007 13.9611 12.9727 13.7876C13.0446 13.6141 13.0806 13.4279 13.0806 13.229V12.7339C13.0806 12.535 13.0425 12.3488 12.9663 12.1753C12.8944 12.0018 12.7822 11.8621 12.6299 11.7563C12.4818 11.6463 12.2913 11.5913 12.0586 11.5913C11.8343 11.5913 11.646 11.6463 11.4937 11.7563C11.3455 11.8621 11.2334 12.0018 11.1572 12.1753C11.0853 12.3488 11.0493 12.535 11.0493 12.7339ZM12.3506 7.07178L7.8374 14.2954L7.17725 13.8765L11.6904 6.65283L12.3506 7.07178Z" fill="white"/>
</svg>
